<svg width="1033" height="400" viewBox="0 0 1033 400" fill="none" xmlns="http://www.w3.org/2000/svg">
<g clip-path="url(#clip0_6106_1574)">
<path d="M160.658 119.658H204.945L220.855 237.293L225.973 236.952L244.541 119.658H280.085L297.899 232.175L303.046 231.834L319.894 75.5835H363.968L327.102 280.386L281.151 283.443L264.545 178.66H260.081L243.077 285.974L199.756 288.846L160.658 119.658Z" fill="#FF0558"/>
<path d="M378.413 119.658L349.85 280.315H384.256L388.123 254.354H420.696L424.492 280.315H459.225L430.335 119.658H378.413ZM392.474 225.137L402.426 158.315H406.691L416.473 225.137H392.474Z" fill="#FF0558"/>
<path d="M842.642 119.658H790.72L762.157 280.315H796.564L800.431 254.354H833.003L836.799 280.315H871.532L842.642 119.658ZM804.781 225.137L814.733 158.315H818.999L828.78 225.137H804.781Z" fill="#FF0558"/>
<path d="M594.291 118.037C562.629 118.037 547.459 135.24 547.459 161.855V238.118C547.459 264.733 562.629 281.936 594.291 281.936C625.954 281.936 641.124 264.733 641.124 238.118V210.536H605.921V241.374C605.921 249.805 602.694 252.748 594.291 252.748C585.889 252.748 582.661 249.819 582.661 241.374V158.599C582.661 150.168 585.889 147.225 594.291 147.225C602.694 147.225 605.921 150.154 605.921 158.599V176.784H641.124V161.855C641.124 135.297 625.954 118.037 594.291 118.037Z" fill="#FF0558"/>
<path d="M449.699 153.083H478.703V280.315H513.678V153.083H539.27V119.658H449.699V153.083Z" fill="#FF0558"/>
<path d="M716.889 183.238H691.837V119.658H656.635V280.315H691.837V215.939H716.889V280.315H752.091V119.658H716.889V183.238Z" fill="#FF0558"/>
</g>
<defs>
<clipPath id="clip0_6106_1574">
<rect width="710.875" height="213.262" fill="white" transform="translate(160.658 75.5835)"/>
</clipPath>
</defs>
</svg>
